<svg width="37" height="39" viewBox="0 0 37 39" fill="none" xmlns="http://www.w3.org/2000/svg">
<path d="M0 0H37V37H0V0Z" fill="#141718"/>
<path d="M20.3156 22.8533C21.0215 22.5844 21.6151 22.0835 21.9988 21.4328L23.2702 19.2771C24.9929 16.3559 29.4697 17.5777 29.4697 20.969V26.1191C29.4697 27.9586 27.9785 29.4498 26.139 29.4498H21.0987C17.4005 29.4498 16.4571 24.3233 19.913 23.0067L20.3156 22.8533Z" fill="white"/>
<path d="M14.3749 18.4925C14.327 19.2464 14.5369 19.9941 14.97 20.613L16.4049 22.6635C18.3494 25.442 15.382 29.0098 12.2957 27.6042L7.60872 25.4697C5.9347 24.7073 5.19568 22.7322 5.95807 21.0581L8.04714 16.4711C9.57991 13.1055 14.6364 14.3717 14.4022 18.0625L14.3749 18.4925Z" fill="white"/>
<path d="M20.6553 16.3106C20.0689 15.8344 19.338 15.5717 18.5826 15.5656L16.08 15.5454C12.6888 15.518 11.5033 11.0315 14.4382 9.33241L18.8954 6.75215C20.4874 5.83057 22.525 6.37401 23.4465 7.96595L25.9718 12.3281C27.8246 15.5287 23.8605 18.9135 20.9897 16.5823L20.6553 16.3106Z" fill="white"/>
</svg>
